<svg id="gte-logo" xmlns="http://www.w3.org/2000/svg" viewBox="0 0 512.68 194.83"><defs><style>.cls-1{fill:#00A8D5;}.cls-2{fill:#fff;}</style></defs><path class="cls-1" d="M85.44,167.35l-38.14-22,25.28-14.6L54.15,120.1a8,8,0,0,0-8,0L24.87,132.38V109.57L91,71.38,72.59,60.74a8,8,0,0,0-8,0L24.87,83.66V62.45l60.57-35,38.14,22-23,13.27L119,73.41a8,8,0,0,0,8,0l19-11V85.27L86.27,119.75l18.43,10.64a8,8,0,0,0,8,0L146,111.17v21.21ZM166.87,45.78,89.44,1.07a8,8,0,0,0-8,0L4,45.78a8,8,0,0,0-4,6.93v89.41a8,8,0,0,0,4,6.94l77.42,44.7a8,8,0,0,0,8,0l77.43-44.7a8,8,0,0,0,4-6.94V52.71a8,8,0,0,0-4-6.93"/><polygon class="cls-2" points="315.44 47.91 315.44 67.92 352.33 67.92 352.33 146.85 378.05 146.85 378.05 67.92 414.94 67.92 414.94 47.91 315.44 47.91"/><polygon class="cls-2" points="425.3 47.91 425.3 146.85 512.68 146.85 512.68 126.85 451.03 126.85 451.03 106.69 505.28 106.69 505.28 86.68 451.03 86.68 451.03 67.92 512.68 67.92 512.68 47.91 425.3 47.91"/><path class="cls-2" d="M214.06,68.3c0-13.64,8.55-20.39,25.49-20.39h66.56v20H245c-3.45,0-5.24,1.34-5.24,4.19v50.51c0,2.85,1.79,4.2,5.24,4.2h36V106.69H261.07v-20h45v60.18H239.55c-16.94,0-25.49-6.75-25.49-20.39Z"/></svg>